<?xml version="1.0" standalone="no"?>
<!DOCTYPE svg PUBLIC "-//W3C//DTD SVG 20010904//EN"
 "http://www.w3.org/TR/2001/REC-SVG-20010904/DTD/svg10.dtd">
<svg version="1.0" xmlns="http://www.w3.org/2000/svg"
 width="512.000000pt" height="512.000000pt" viewBox="0 0 512.000000 512.000000"
 preserveAspectRatio="xMidYMid meet">
<metadata>
Created by potrace 1.11, written by Peter Selinger 2001-2013
</metadata>
<g transform="translate(0.000000,512.000000) scale(0.100000,-0.100000)"
fill="#000000" stroke="none">
<path d="M3040 5002 c-52 -5 -228 -41 -285 -59 -27 -8 -104 -42 -170 -74 -351
-170 -605 -516 -714 -971 -25 -105 -71 -305 -77 -338 -3 -14 -9 -41 -14 -60
-5 -19 -11 -46 -14 -60 -4 -25 -20 -93 -56 -245 -10 -44 -21 -91 -24 -105 -7
-36 -142 -629 -166 -725 -10 -44 -22 -95 -25 -114 -3 -19 -8 -37 -10 -41 -2
-4 -7 -22 -10 -41 -3 -19 -14 -70 -25 -114 -26 -110 -120 -524 -126 -555 -3
-14 -11 -50 -19 -80 -8 -30 -16 -66 -19 -80 -2 -14 -21 -95 -40 -180 -20 -85
-38 -164 -40 -175 -4 -19 -67 -295 -106 -460 -10 -44 -21 -92 -24 -108 l-5
-27 220 0 c167 0 221 3 224 13 3 11 92 400 100 440 2 10 6 26 9 35 3 9 7 28
10 42 2 14 32 144 66 290 34 146 63 272 65 280 3 19 16 16 63 -14 96 -60 289
-121 484 -151 88 -14 404 -15 425 -2 5 3 29 8 53 12 62 9 223 57 292 88 262
117 511 342 637 577 46 86 95 216 110 292 6 29 13 67 16 83 4 17 8 91 11 165
4 147 -9 230 -52 327 -72 164 -223 293 -419 359 -44 14 -93 28 -110 31 -71 11
-57 45 29 72 226 70 457 236 590 424 60 85 122 217 147 312 29 108 32 329 6
424 -75 273 -300 457 -620 505 -82 13 -293 17 -387 8z m214 -354 c75 -18 86
-22 144 -50 133 -66 212 -201 212 -364 0 -259 -98 -457 -297 -600 -127 -91
-254 -133 -518 -168 -16 -3 -71 -5 -122 -5 l-91 -1 -12 -52 c-6 -29 -13 -62
-16 -73 -2 -11 -15 -70 -28 -130 -14 -60 -24 -110 -23 -111 1 -1 77 -4 169 -7
92 -3 171 -7 175 -10 4 -3 31 -8 58 -11 130 -14 277 -79 358 -159 102 -99 140
-210 133 -388 -6 -138 -10 -160 -46 -269 -91 -275 -318 -482 -585 -534 -16 -4
-41 -9 -55 -12 -55 -13 -317 -12 -405 2 -172 27 -332 77 -418 131 -31 20 -38
29 -33 46 3 12 29 123 57 247 27 124 59 261 69 305 19 78 98 431 105 468 3 10
6 26 9 35 3 9 7 28 10 42 2 14 39 176 81 360 75 325 81 352 89 395 45 232 145
496 234 612 121 160 271 261 437 296 78 17 247 19 309 5z"/>
<path d="M3795 1509 c-163 -37 -295 -138 -384 -294 -58 -101 -94 -211 -126
-380 -3 -16 -8 -86 -11 -155 -11 -234 47 -361 195 -431 112 -52 318 -62 436
-20 231 82 391 323 440 661 11 77 14 278 4 329 -29 150 -131 252 -286 287 -48
10 -226 13 -268 3z m185 -254 c41 -39 54 -105 46 -234 -16 -271 -105 -504
-216 -572 -63 -38 -155 -14 -187 49 -37 76 -21 323 33 502 44 146 107 243 179
276 45 21 111 12 145 -21z"/>
</g>
</svg>
